<?xml version="1.0" standalone="no"?>
<!DOCTYPE svg PUBLIC "-//W3C//DTD SVG 20010904//EN"
 "http://www.w3.org/TR/2001/REC-SVG-20010904/DTD/svg10.dtd">
<svg version="1.0" xmlns="http://www.w3.org/2000/svg"
 width="300.000000pt" height="300.000000pt" viewBox="0 0 300.000000 300.000000"
 preserveAspectRatio="xMidYMid meet">
<metadata>
Created by potrace 1.11, written by Peter Selinger 2001-2013
</metadata>
<g transform="translate(0.000000,300.000000) scale(0.100000,-0.100000)"
fill="#000000" stroke="none">
<path d="M0 1500 l0 -1500 1500 0 1500 0 0 1500 0 1500 -1500 0 -1500 0 0
-1500z m1220 585 c230 -70 344 -242 355 -538 8 -232 -42 -400 -158 -524 -111
-118 -261 -169 -467 -160 -278 13 -430 126 -498 369 -13 49 -17 102 -17 243 1
168 3 185 28 261 65 195 201 319 395 359 87 19 286 13 362 -10z m798 1 c9 -5
12 -121 12 -507 l0 -499 200 0 c230 0 220 5 220 -100 0 -108 24 -100 -321
-100 l-300 0 -25 25 -24 24 2 573 3 572 25 14 c27 14 184 13 208 -2z"/>
<path d="M896 1894 c-68 -22 -146 -101 -176 -179 -32 -85 -41 -312 -15 -418
24 -99 68 -164 136 -202 50 -28 62 -30 154 -30 92 0 104 2 154 30 128 70 189
252 162 485 -18 166 -59 244 -151 294 -66 36 -186 45 -264 20z"/>
</g>
</svg>
